HIERARCHY
ROOT Hips
{
	OFFSET 0.000000 0.000000 0.000000
	CHANNELS 6 Xposition Yposition Zposition Zrotation Yrotation Xrotation 
	JOINT LowerBack
	{
		OFFSET 0.000000 0.000000 0.000000
		CHANNELS 3 Zrotation Yrotation Xrotation
		JOINT Spine
		{
			OFFSET 0.028270 2.035590 -0.193380
			CHANNELS 3 Zrotation Yrotation Xrotation
			JOINT Spine1
			{
				OFFSET 0.056720 2.048850 -0.042750
				CHANNELS 3 Zrotation Yrotation Xrotation
				JOINT Neck
				{
					OFFSET 0.000000 0.000000 0.000000
					CHANNELS 3 Zrotation Yrotation Xrotation
					JOINT Neck1
					{
						OFFSET -0.054170 1.746240 0.172020
						CHANNELS 3 Zrotation Yrotation Xrotation
						JOINT Head
						{
							OFFSET 0.104070 1.761360 -0.123970
							CHANNELS 3 Zrotation Yrotation Xrotation
							End Site
							{
								OFFSET 0.000000 0.000000 0.000000
							}
						}
					}
				}
				JOINT LeftShoulder
				{
					OFFSET 0.000000 0.000000 0.000000
					CHANNELS 3 Zrotation Yrotation Xrotation
					JOINT LeftArm
					{
						OFFSET 3.362410 1.200890 -0.311210
						CHANNELS 3 Zrotation Yrotation Xrotation
						JOINT LeftForeArm
						{
							OFFSET 4.983000 -0.000000 -0.000000
							CHANNELS 3 Zrotation Yrotation Xrotation
							JOINT LeftHand
							{
								OFFSET 3.483560 -0.000000 -0.000000
								CHANNELS 3 Zrotation Yrotation Xrotation
								JOINT LeftFingerBase
								{
									OFFSET 0.000000 0.000000 0.000000
									CHANNELS 3 Zrotation Yrotation Xrotation
									JOINT LeftHandIndex1
									{
										OFFSET 0.715260 -0.000000 -0.000000
										CHANNELS 3 Zrotation Yrotation Xrotation
										End Site
										{
											OFFSET 0.000000 0.000000 0.000000
										}
									}
								}
								JOINT LThumb
								{
									OFFSET 0.000000 0.000000 0.000000
									CHANNELS 3 Zrotation Yrotation Xrotation
									End Site
									{
										OFFSET 0.000000 0.000000 0.000000
									}
								}
							}
						}
					}
				}
				JOINT RightShoulder
				{
					OFFSET 0.000000 0.000000 0.000000
					CHANNELS 3 Zrotation Yrotation Xrotation
					JOINT RightArm
					{
						OFFSET -3.136600 1.374050 -0.404650
						CHANNELS 3 Zrotation Yrotation Xrotation
						JOINT RightForeArm
						{
							OFFSET -5.241900 -0.000000 -0.000000
							CHANNELS 3 Zrotation Yrotation Xrotation
							JOINT RightHand
							{
								OFFSET -3.444170 -0.000000 -0.000000
								CHANNELS 3 Zrotation Yrotation Xrotation
								JOINT RightFingerBase
								{
									OFFSET 0.000000 0.000000 0.000000
									CHANNELS 3 Zrotation Yrotation Xrotation
									JOINT RightHandIndex1
									{
										OFFSET -0.622530 -0.000000 -0.000000
										CHANNELS 3 Zrotation Yrotation Xrotation
										End Site
										{
											OFFSET 0.000000 0.000000 0.000000
										}
									}
								}
								JOINT RThumb
								{
									OFFSET 0.000000 0.000000 0.000000
									CHANNELS 3 Zrotation Yrotation Xrotation
									End Site
									{
										OFFSET 0.000000 0.000000 0.000000
									}
								}
							}
						}
					}
				}
			}
		}
	}
}
}
MOTION
Frames: 14
Frame Time: 0.008333
-2.584489 16.043189 -0.015555 51.267834 82.512220 80.507900 5.762435 -2.253388 10.745439 0.636350 -2.209174 -0.875986 -4.744661 -2.185243 -0.969054 5.758524 -7.865653 -5.183480 -2.794685 -0.207846 0.214048 0.000000 0.000000 0.000000 4.759209 4.445179 1.401284 -56.603501 -8.679426 11.406668 -179.137833 -80.764116 -179.989353 -2.359158 5.268463 -0.100248 -0.033279 0.297724 -0.000000 0.000000 0.000000 0.000000 0.000000 0.000000 0.000000 6.776013 -4.257414 1.234339 73.587743 -12.315711 5.663608 0.398291 75.007361 -0.022837 -6.033453 1.935713 -0.116082 0.072217 -0.254236 -0.000000 0.000000 0.000000 0.000000 0.000000 0.000000 0.000000 
-2.459649 16.039037 0.037242 50.018843 82.188927 79.197490 5.706993 -2.212775 10.840882 0.635323 -2.161215 -0.866841 -4.681730 -2.138891 -1.013837 5.821882 -7.615348 -5.031849 -2.778712 -0.208144 0.253779 0.000000 0.000000 0.000000 4.762328 4.312722 1.388717 -57.526024 -7.845991 11.637978 -179.204869 -81.503840 -179.988339 -2.495916 5.262615 -0.106366 -0.027194 0.292668 -0.000000 0.000000 0.000000 0.000000 0.000000 0.000000 0.000000 6.750005 -4.008188 1.196242 73.555571 -11.427864 5.534403 0.399222 74.817450 -0.023521 -6.136784 1.860973 -0.114188 0.073887 -0.255876 -0.000000 0.000000 0.000000 0.000000 0.000000 0.000000 0.000000 
-2.335823 16.036350 0.090085 48.890563 81.847484 78.021270 5.643659 -2.169127 10.918397 0.632579 -2.110896 -0.858983 -4.620153 -2.090106 -1.049112 5.886360 -7.384374 -4.877433 -2.756885 -0.208119 0.294719 0.000000 0.000000 0.000000 4.743499 4.188129 1.376985 -58.410348 -7.049392 11.875551 -179.276537 -82.325576 -179.987408 -2.630060 5.250892 -0.112383 -0.021498 0.287336 -0.000000 0.000000 0.000000 0.000000 0.000000 0.000000 0.000000 6.706482 -3.781249 1.150300 73.538586 -10.546005 5.390317 0.398566 74.667962 -0.024245 -6.243871 1.781772 -0.111895 0.075602 -0.257578 -0.000000 0.000000 0.000000 0.000000 0.000000 0.000000 0.000000 
-2.212965 16.035233 0.142728 47.850102 81.486469 76.948252 5.574304 -2.122831 10.979862 0.628346 -2.058640 -0.852228 -4.560328 -2.039326 -1.075988 5.949511 -7.172090 -4.725362 -2.729881 -0.207755 0.335310 0.000000 0.000000 0.000000 4.699800 4.078239 1.368359 -59.250259 -6.289793 12.118944 -179.351654 -83.220901 -179.986606 -2.755928 5.233263 -0.117698 -0.016431 0.281798 -0.000000 0.000000 0.000000 0.000000 0.000000 0.000000 0.000000 6.645250 -3.573524 1.097122 73.533033 -9.674142 5.236786 0.395924 74.572516 -0.025011 -6.353256 1.699419 -0.109402 0.077321 -0.259431 -0.000000 0.000000 0.000000 0.000000 0.000000 0.000000 0.000000 
-2.091143 16.035916 0.194862 46.822597 81.110610 75.908631 5.507122 -2.073157 11.025291 0.624278 -2.003810 -0.847269 -4.502389 -1.986029 -1.097100 6.007598 -6.971075 -4.578729 -2.698520 -0.207072 0.374588 0.000000 0.000000 0.000000 4.626485 3.986935 1.365357 -60.042314 -5.561399 12.362729 -179.428982 -84.177413 -179.985957 -2.868868 5.206591 -0.122310 -0.012145 0.276219 -0.000000 0.000000 0.000000 0.000000 0.000000 0.000000 0.000000 6.563894 -3.374385 1.038060 73.535150 -8.816022 5.079117 0.391248 74.538211 -0.025807 -6.459429 1.621773 -0.106909 0.078951 -0.261577 -0.000000 0.000000 0.000000 0.000000 0.000000 0.000000 0.000000 
-1.970419 16.038602 0.246253 45.763293 80.721602 74.859798 5.446312 -2.020351 11.057206 0.621146 -1.946604 -0.844082 -4.446619 -1.930466 -1.114568 6.059300 -6.776492 -4.440409 -2.663592 -0.206086 0.411640 0.000000 0.000000 0.000000 4.522655 3.916805 1.369833 -60.784621 -4.857016 12.603285 -179.507712 -85.184761 -179.985489 -2.964178 5.172022 -0.125818 -0.008739 0.270643 0.000000 0.000000 0.000000 0.000000 0.000000 0.000000 0.000000 6.463230 -3.176849 0.974244 73.540158 -7.971874 4.923082 0.384499 74.570588 -0.026614 -6.558254 1.552146 -0.104616 0.080427 -0.264102 -0.000000 0.000000 0.000000 0.000000 0.000000 0.000000 0.000000 
-1.850893 16.043469 0.296834 44.629357 80.325085 73.762585 5.397287 -1.964494 11.075756 0.620058 -1.887106 -0.843319 -4.393219 -1.872811 -1.130914 6.103813 -6.580883 -4.311894 -2.625900 -0.204834 0.446011 0.000000 0.000000 0.000000 4.389189 3.867515 1.383279 -61.477777 -4.166803 12.833314 -179.587020 -86.230928 -179.985187 -3.041610 5.128845 -0.128223 -0.006162 0.265160 -0.000000 0.000000 0.000000 0.000000 0.000000 0.000000 0.000000 6.344262 -2.971575 0.907145 73.543154 -7.141588 4.777316 0.375985 74.666972 -0.027419 -6.646382 1.500811 -0.103223 0.081699 -0.267138 -0.000000 0.000000 0.000000 0.000000 0.000000 0.000000 0.000000 
-1.732662 16.050456 0.346658 43.430447 79.918306 72.622348 5.356652 -1.907117 11.086821 0.620140 -1.826586 -0.843925 -4.342641 -1.814286 -1.147155 6.143494 -6.383601 -4.194464 -2.586120 -0.203339 0.477249 0.000000 0.000000 0.000000 4.231018 3.838592 1.405902 -62.121953 -3.483674 13.052145 -179.666616 -87.309119 -179.985077 -3.095597 5.079532 -0.129425 -0.004450 0.259743 0.000000 0.000000 0.000000 0.000000 0.000000 0.000000 0.000000 6.212320 -2.757957 0.837390 73.540878 -6.321146 4.646670 0.365736 74.828478 -0.028207 -6.718287 1.463010 -0.102329 0.082690 -0.270640 -0.000000 0.000000 0.000000 0.000000 0.000000 0.000000 0.000000 
-1.615835 16.059539 0.395866 42.160976 79.505790 71.434312 5.325110 -1.848830 11.090177 0.621553 -1.765624 -0.846169 -4.295080 -1.755487 -1.164000 6.179895 -6.181245 -4.088616 -2.544691 -0.201625 0.505234 0.000000 0.000000 0.000000 4.053410 3.829585 1.437894 -62.719117 -2.802975 13.256586 -179.746008 -88.412113 -179.985111 -3.131555 5.025378 -0.129625 -0.003416 0.254387 0.000000 0.000000 0.000000 0.000000 0.000000 0.000000 0.000000 6.070286 -2.532405 0.765807 73.529831 -5.507148 4.541246 0.354257 75.044948 -0.028962 -6.774848 1.447771 -0.102537 0.083419 -0.274680 -0.000000 0.000000 0.000000 0.000000 0.000000 0.000000 0.000000 
-1.500450 16.070533 0.444679 40.853825 79.084303 70.223267 5.296481 -1.791443 11.092111 0.622842 -1.705732 -0.848869 -4.250999 -1.697850 -1.182120 6.216623 -5.975114 -3.993265 -2.502137 -0.199738 0.530223 0.000000 0.000000 0.000000 3.863068 3.834443 1.478332 -63.270635 -2.115669 13.446311 -179.824801 -89.534595 -179.985470 -3.147120 4.969891 -0.128924 -0.002995 0.249000 0.000000 0.000000 0.000000 0.000000 0.000000 0.000000 0.000000 5.924331 -2.297650 0.692901 73.509399 -4.696075 4.462752 0.341663 75.312961 -0.029675 -6.812911 1.446518 -0.103341 0.083844 -0.279135 -0.000000 0.000000 0.000000 0.000000 0.000000 0.000000 0.000000 
-1.386531 16.083214 0.493386 39.527641 78.656641 69.005422 5.267696 -1.735666 11.092664 0.623343 -1.647564 -0.851767 -4.210684 -1.641983 -1.200392 6.256334 -5.766699 -3.908185 -2.458673 -0.197694 0.552315 0.000000 0.000000 0.000000 3.667191 3.853742 1.526361 -63.778434 -1.423669 13.623674 0.096669 -89.325001 0.014431 -3.151083 4.915496 -0.127723 -0.002976 0.243505 0.000000 0.000000 0.000000 0.000000 0.000000 0.000000 0.000000 5.778357 -2.056303 0.618661 73.479409 -3.884326 4.418644 0.328377 75.621307 -0.030351 -6.836508 1.462372 -0.104949 0.084032 -0.283984 -0.000000 0.000000 0.000000 0.000000 0.000000 0.000000 0.000000 
-1.274049 16.097286 0.542269 38.213933 78.221761 67.805942 5.233428 -1.682508 11.094928 0.621876 -1.591963 -0.854035 -4.174297 -1.588655 -1.218087 6.301609 -5.559435 -3.831899 -2.414467 -0.195524 0.571922 0.000000 0.000000 0.000000 3.471783 3.883499 1.580616 -64.244161 -0.724489 13.791636 0.019062 -88.168497 0.014093 -3.148495 4.865483 -0.126422 -0.003208 0.237792 0.000000 0.000000 0.000000 0.000000 0.000000 0.000000 0.000000 5.636171 -1.813515 0.543134 73.441088 -3.069937 4.410648 0.314611 75.962830 -0.030993 -6.848588 1.489648 -0.107055 0.084034 -0.289111 -0.000000 0.000000 0.000000 0.000000 0.000000 0.000000 0.000000 
-1.162960 16.112485 0.591496 36.937760 77.780070 66.644471 5.189381 -1.632492 11.100264 0.617494 -1.539369 -0.855080 -4.141987 -1.538242 -1.233887 6.354309 -5.357206 -3.763206 -2.369651 -0.193250 0.589401 0.000000 0.000000 0.000000 3.282156 3.922277 1.639744 -64.669849 -0.020753 13.955084 -0.057799 -86.995392 0.013730 -3.146612 4.822164 -0.125323 -0.003544 0.231774 0.000000 0.000000 0.000000 0.000000 0.000000 0.000000 0.000000 5.500610 -1.574751 0.466080 73.396566 -2.252164 4.440153 0.300548 76.330641 -0.031619 -6.854565 1.523851 -0.109561 0.083934 -0.294411 -0.000000 0.000000 0.000000 0.000000 0.000000 0.000000 0.000000 
-1.053144 16.128530 0.641282 35.715133 77.332502 65.534334 5.132954 -1.585370 11.108513 0.609646 -1.489530 -0.854553 -4.113673 -1.490444 -1.246198 6.415092 -5.162838 -3.700958 -2.324263 -0.190890 0.605087 0.000000 0.000000 0.000000 3.102459 3.971404 1.702602 -65.057561 0.681561 14.120690 -0.134053 -85.803693 0.013384 -3.154794 4.787370 -0.124825 -0.003844 0.225380 0.000000 0.000000 0.000000 0.000000 0.000000 0.000000 0.000000 5.372745 -1.343873 0.387000 73.348580 -1.433327 4.505940 0.286298 76.720230 -0.032250 -6.859963 1.561763 -0.112367 0.083814 -0.299802 -0.000000 0.000000 0.000000 0.000000 0.000000 0.000000 0.000000 
